<?xml version="1.0" encoding="UTF-8"?>
<svg version="1.1" xmlns="http://www.w3.org/2000/svg" width="1000" height="995">
<path d="M0 0 C1.69962891 -0.01836914 1.69962891 -0.01836914 3.43359375 -0.03710938 C9.66794241 -0.04704723 15.83734231 0.12935832 22.0534668 0.63061523 C39.95825669 2.05190288 57.779763 2.40559468 75.73828125 2.49609375 C77.01769718 2.50297525 78.29711311 2.50985676 79.61529922 2.51694679 C90.9859658 2.5755271 102.35667782 2.61359736 113.72746104 2.639144 C121.06870282 2.65576483 128.40969911 2.68590761 135.75084496 2.72856331 C138.26291137 2.74015235 140.77501051 2.74614312 143.28710365 2.74624443 C146.78315193 2.74643709 150.2786896 2.76473673 153.7746582 2.78686523 C154.7933902 2.78228806 155.81212219 2.77771088 156.86172485 2.772995 C167.15596678 2.87625485 176.39673627 5.28204396 184.25 12.1875 C191.37815625 20.45180343 193.76588899 29.4648323 193.5625 40.1875 C193.56572266 41.00605469 193.56894531 41.82460937 193.57226562 42.66796875 C193.52680939 48.13098203 192.99745997 53.46633264 192.296875 58.87890625 C190.89161336 69.92276129 190.58475601 81.00789019 190.1875 92.125 C190.0707435 95.23761662 189.95205145 98.3501523 189.83247375 101.46266174 C189.75413825 103.50358167 189.67697707 105.54454702 189.60099792 107.58555603 C189.40549551 112.71666316 189.16461418 117.8392841 188.83798218 122.96365356 C188.06202042 135.22012673 188.05390443 147.47254771 188.0625 159.75 C188.06210724 160.95237305 188.06171448 162.15474609 188.06130981 163.39355469 C188.07083304 188.11666302 188.90268546 212.78727481 189.87425232 237.48814392 C190.52477681 254.05183342 191.00412369 270.61278849 191.25 287.1875 C191.2643811 288.10356018 191.27876221 289.01962036 191.2935791 289.96343994 C191.81476863 324.44636678 190.91383337 358.85048112 189.8125 393.3125 C189.76095764 394.92556282 189.76095764 394.92556282 189.70837402 396.57121277 C189.63900947 398.74059317 189.56961826 400.90997273 189.50020027 403.07935143 C187.00740394 480.23819502 187.00740394 480.23819502 188.66870117 557.39892578 C188.73988159 558.87208252 188.73988159 558.87208252 188.8125 560.375 C188.84876999 561.09079224 188.88503998 561.80658447 188.92240906 562.54406738 C189.81037479 580.93703692 189.06230752 599.24582557 188.07425022 617.61984634 C185.74186723 661.13263344 185.975201 703.70491756 189.56236362 747.13197327 C189.73186265 749.18432133 189.90117372 751.23668472 190.0703125 753.2890625 C190.12522921 753.95509995 190.18014591 754.62113739 190.23672676 755.30735779 C191.38513434 769.30011053 192.10826563 783.22493437 192.21484375 797.26660156 C192.24829152 800.99695704 192.31567311 804.72513623 192.39009094 808.45481873 C192.45336867 811.88320055 192.4954047 815.31162664 192.53207397 818.74038696 C192.55186673 820.37294164 192.57761013 822.0054387 192.61026001 823.63778687 C192.87059033 837.57288889 192.20260499 853.37850807 182.25 864.1875 C167.51518304 878.82320384 141.47723986 877.36159248 122.24487305 877.31787109 C119.45420854 877.31253197 116.66370637 877.31783111 113.87304688 877.32421875 C112.05468715 877.32355747 110.23632753 877.32227527 108.41796875 877.3203125 C107.60603561 877.32233673 106.79410248 877.32436096 105.95756531 877.32644653 C101.1318842 877.30753426 96.36248816 877.07010756 91.55053711 876.69897461 C84.12316705 876.13720465 76.71967058 875.96684021 69.2734375 875.87109375 C67.86705596 875.85025904 66.46067886 875.82912309 65.05430603 875.80770874 C61.34213361 875.75244689 57.62991097 875.7025646 53.91763687 875.6546669 C51.60730248 875.62477099 49.29698257 875.5939156 46.98666382 875.56283569 C38.01019473 875.44272183 29.03364222 875.3327253 20.0569458 875.2310791 C16.77735426 875.19353676 13.49780923 875.15346612 10.21826172 875.11230469 C-36.30649822 874.55500901 -82.46562507 878.86617477 -128.75554657 883.00901031 C-137.14220841 883.75955811 -145.52911021 884.50726413 -153.91665649 885.24786377 C-156.61762097 885.48821973 -159.31797638 885.73461321 -162.01831055 885.98193359 C-183.66001758 887.93426682 -205.22350573 888.35900695 -226.94755936 888.31607056 C-229.03802885 888.31243384 -231.12849133 888.31086678 -233.21896362 888.30981445 C-249.58981698 888.29960124 -265.94782197 888.16952852 -282.3125 887.6875 C-334.18534476 886.2233022 -385.9393886 887.33704717 -437.78044891 889.33400536 C-472.53818995 890.67014668 -507.25039745 891.37623909 -542.03540039 891.37280273 C-546.20764516 891.37272164 -550.37977971 891.37966435 -554.55200195 891.39331055 C-577.24821809 891.46605425 -599.90990499 891.28140457 -622.58984375 890.36328125 C-623.52145388 890.32860434 -624.453064 890.29392742 -625.41290474 890.25819969 C-635.22034173 889.88193022 -644.89617905 889.18985628 -654.61157227 887.76245117 C-655.42224372 887.6439874 -656.23291517 887.52552362 -657.06815243 887.40347004 C-666.38857193 885.92725852 -676.22589635 883.38074248 -682.75 876.1875 C-690.82036629 863.08625602 -688.89005158 847.19893203 -687.8125 832.5 C-685.11864792 794.6732601 -687.94727996 756.88014053 -690.39453125 719.09765625 C-692.59793387 684.36168952 -692.248404 649.49839244 -691.31890869 614.71832275 C-689.70457533 553.96419491 -690.67685674 493.16165284 -691.96801758 432.41210938 C-692.06081425 428.04297096 -692.15349992 423.67383022 -692.24609375 419.3046875 C-692.2688695 418.23415382 -692.29164524 417.16362015 -692.31511116 416.06064606 C-692.73299562 396.30804126 -692.99571901 376.55594309 -693.19848633 356.80010986 C-693.48112541 329.2975984 -693.93519288 301.80644615 -694.6875 274.3125 C-694.70868645 273.53603371 -694.72987289 272.75956741 -694.75170135 271.95957184 C-695.26583034 253.21608831 -695.91889139 234.48397138 -696.74136353 215.75119019 C-698.69375595 170.99151257 -699.36671677 125.81631161 -694.42797852 81.21899414 C-693.87035863 75.77932169 -693.63414265 70.35576557 -693.5078125 64.890625 C-693.49011307 64.14716827 -693.47241364 63.40371155 -693.45417786 62.63772583 C-693.37020903 58.93341148 -693.30524961 55.22996831 -693.26733398 51.52490234 C-693.07884668 39.10379703 -692.83020333 24.6513739 -683.75 15.1875 C-675.41651549 8.37986477 -664.84184112 8.8949185 -654.70654297 8.98168945 C-652.51908528 8.99984162 -650.33205621 9.00219919 -648.14453125 9.00195312 C-642.1005352 9.017912 -636.10758961 9.08949365 -630.08984375 9.72265625 C-620.61412526 10.61255678 -611.06146731 10.05670901 -601.5625 9.8125 C-599.67123811 9.76762866 -597.77996191 9.72335647 -595.88867188 9.6796875 C-594.91673386 9.65703827 -593.94479584 9.63438904 -592.94340515 9.61105347 C-590.78131714 9.56102708 -588.61921697 9.51152483 -586.45710754 9.46243286 C-581.06177616 9.33893542 -575.66668158 9.21494085 -570.27206421 9.06341553 C-527.48062739 7.86670539 -484.67849015 8.03436911 -441.87438804 8.05893099 C-434.54166092 8.06269965 -427.20894732 8.06134476 -419.8762207 8.05712891 C-339.81127877 8.01219051 -339.81127877 8.01219051 -308.16156197 8.75325584 C-280.60337204 9.39713089 -253.04304852 9.37502437 -225.47886378 9.37261033 C-220.33321751 9.37291773 -215.18762314 9.38116108 -210.04199219 9.39331055 C-163.31421694 9.50081043 -116.88848193 8.50659481 -70.32244873 4.3270874 C-63.462259 3.71364078 -56.60023001 3.12073647 -49.73828125 2.52734375 C-49.01733654 2.46485632 -48.29639183 2.40236889 -47.55360031 2.3379879 C-31.69923387 0.96845063 -15.92061094 0.00869979 0 0 Z M-81.99996185 14.92498589 C-123.72540413 18.60027899 -165.66339669 19.39721685 -207.53497696 19.37597656 C-210.07559657 19.37497005 -212.61621037 19.37600858 -215.15682983 19.37719727 C-245.76877908 19.38244767 -276.36349363 18.86290353 -306.96860123 18.25843048 C-396.74270665 16.48661639 -486.54761208 16.41649982 -576.31103516 18.81509399 C-588.87438786 19.14802284 -601.43226925 19.29440725 -614 19.3125 C-614.81051819 19.3150882 -615.62103638 19.31767639 -616.45611572 19.32034302 C-624.98644301 19.34214262 -633.40733562 19.16483788 -641.91259766 18.42333984 C-653.6911281 17.44432931 -667.62205968 16.3870504 -677.8125 23.25 C-684.42702355 33.27847118 -683.80018529 46.20116982 -684.03422546 57.76596069 C-684.29861251 70.36444195 -684.90726962 82.85263814 -686.06194496 95.40122604 C-687.92143405 116.05586399 -688.19025915 136.60847374 -688.07600784 157.33394241 C-688.06224313 160.11438731 -688.05451841 162.89479046 -688.04855347 165.67526245 C-687.99445504 189.70749136 -687.72118984 213.70455034 -686.41801453 237.70674133 C-684.31656449 276.51297167 -684.29878131 315.42899836 -683.78125 354.2811203 C-683.61728827 366.57893041 -683.45082206 378.87670474 -683.28107309 391.17443633 C-683.24993314 393.43845472 -683.21912759 395.70247747 -683.1883812 397.96650124 C-682.96548443 414.32257709 -682.69127273 430.67460404 -682.26220322 447.02679443 C-681.48346445 477.00213057 -681.59872063 506.98666593 -681.62143064 536.96981925 C-681.62521381 542.54539668 -681.62383202 548.12095641 -681.61962891 553.6965332 C-681.57241619 617.79306393 -681.57241619 617.79306393 -682.40060425 641.71458435 C-682.86064141 655.00362855 -682.99464877 668.29421036 -682.41796875 681.58203125 C-682.36354866 682.92436829 -682.36354866 682.92436829 -682.30802917 684.29382324 C-682.18860638 687.19606934 -682.06316455 690.09801806 -681.9375 693 C-681.87372162 694.53459366 -681.87372162 694.53459366 -681.80865479 696.10018921 C-681.30639899 708.17898942 -680.7128378 720.24727408 -679.94921875 732.3125 C-678.52477149 754.95527837 -677.46568424 777.49341043 -677.5 800.1875 C-677.50086609 801.26222565 -677.50173218 802.33695129 -677.50262451 803.44424438 C-677.52369922 813.46217413 -677.61994628 823.41264793 -678.52294922 833.39648438 C-678.9035801 838.07537926 -678.93413894 842.74546102 -678.9375 847.4375 C-678.94974609 848.35273437 -678.96199219 849.26796875 -678.97460938 850.2109375 C-678.98944575 857.15435914 -678.90758382 864.24534025 -674.6875 870 C-662.69327177 878.93187208 -646.55446517 879.62339506 -632.125 880.3125 C-630.6258124 880.39108661 -629.12662625 880.46970077 -627.62744141 880.54833984 C-596.71449433 882.10188145 -565.69680398 882.52092464 -534.75 882.1875 C-533.89760742 882.17889954 -533.04521484 882.17029907 -532.16699219 882.16143799 C-495.34308407 881.77964999 -458.54837315 880.56237525 -421.74658203 879.29174805 C-410.74809219 878.9121067 -399.74931012 878.54261524 -388.75 878.1875 C-387.88179249 878.15929798 -387.01358498 878.13109596 -386.11906815 878.10203934 C-365.09543506 877.4232802 -344.15471829 877.07349248 -323.12030029 877.54067993 C-315.93616969 877.69470921 -308.75133703 877.80474935 -301.56640625 877.9140625 C-300.7963475 877.92585604 -300.02628876 877.93764957 -299.2328949 877.94980049 C-221.64024466 879.52867623 -221.64024466 879.52867623 -144.26123047 874.85546875 C-132.5579198 873.62782783 -120.82689456 872.66927506 -109.10329723 871.65786171 C-103.97462598 871.2147395 -98.84733914 870.75776544 -93.72045898 870.29443359 C-86.07447869 869.60612317 -78.42567466 868.95848979 -70.77301788 868.34884644 C-68.80676082 868.19202698 -66.84072384 868.0324557 -64.87469482 867.87280273 C-38.85373737 865.83317787 -12.82569723 865.87799636 13.26171875 865.92675781 C19.38817119 865.93813866 25.51444942 865.93140018 31.64089584 865.91985321 C54.68952194 865.88326828 77.69892766 865.8602106 100.70053101 867.4887085 C114.23451021 868.43267915 127.85178001 868.73399698 141.375 867.4375 C142.74785156 867.30770752 142.74785156 867.30770752 144.1484375 867.17529297 C155.64182741 865.97338296 168.01882568 864.59670787 176.4375 855.9375 C186.517294 840.64401944 183.91070541 818.84622455 182.66992188 801.43701172 C182.35051542 796.71086085 182.18891043 791.99812834 182.1015625 787.26171875 C181.72536638 767.82572032 180.44564009 748.56412077 178.7097168 729.20092773 C176.23750234 701.59198355 175.93805849 674.62693595 177.4246254 646.93356609 C178.60940612 624.83288652 179.55260873 602.76375036 179.5 580.625 C179.49895264 579.68658264 179.49790527 578.74816528 179.49682617 577.78131104 C179.47337719 567.986369 179.23124892 558.22427426 178.75 548.44140625 C178.05863989 533.99134669 178.01122878 519.53680993 178.00161743 505.07342529 C178.00052767 503.46588079 177.99878501 501.85833661 177.99642944 500.25079346 C177.95857599 473.5144075 178.57719552 446.83425679 179.53741455 420.1164856 C180.79956668 384.99102475 181.625 349.90004376 181.625 314.75 C181.625 313.71566708 181.625 312.68133415 181.625 311.61565781 C181.60854154 276.4813376 180.75817475 241.39311867 179.31787109 206.28930664 C177.92930431 172.39427333 178.24298344 138.89772218 179.9876709 105.01696777 C180.17222408 101.38250043 180.34669253 97.74757641 180.52113152 94.11261177 C180.6937769 90.53623747 180.87183251 86.96014787 181.05151749 83.38412094 C181.13500633 81.71407819 181.21715364 80.04396766 181.2977562 78.37378311 C181.76656031 68.74605428 182.46602979 59.1901735 183.59867668 49.61532784 C184.79904933 39.18974118 184.86436383 28.89641238 178.25 20.1875 C170.2715702 12.75024276 160.78873753 11.86881107 150.31274414 11.9921875 C149.36142609 11.99510803 148.41010803 11.99802856 147.42996216 12.0010376 C145.37410956 12.00861228 143.31826976 12.02080561 141.26246834 12.03717041 C137.9717003 12.06299803 134.68109654 12.07581051 131.39024353 12.08544922 C123.19570517 12.11202823 115.00131812 12.15974392 106.80688477 12.20825195 C98.79966403 12.25487741 90.79248968 12.29215369 82.78515625 12.3125 C81.66911577 12.31537521 80.55307529 12.31825043 79.40321541 12.32121277 C61.73527624 12.34925378 44.23340991 11.6610036 26.61550903 10.40966797 C18.47827839 9.87250346 10.34072524 9.70578682 2.1875 9.6875 C1.26428955 9.68349182 0.3410791 9.67948364 -0.61010742 9.675354 C-27.82119043 9.64769817 -54.92055698 12.5354822 -81.99996185 14.92498589 Z " fill="#FFFFFF" transform="translate(748.75,51.8125)"/>
<path d="M0 0 C116.97180468 0 116.97180468 0 139.33984375 22.1875 C151.24347352 34.77283544 155.47506629 49.55390534 155.2109375 66.5703125 C154.66615721 82.23442733 148.07064172 94.20704996 137 105 C131.30321888 110.28072407 120.21742128 119 112 119 C112.28496338 119.53963379 112.56992676 120.07926758 112.86352539 120.63525391 C119.26055632 132.77126312 125.51608714 144.96716938 131.625 157.25 C135.68840171 165.41962975 139.7712712 173.57175802 144.0625 181.625 C148.02814036 189.07588046 151.86530796 196.58935707 155.65426636 204.13128662 C156.29817129 205.41229488 156.94344207 206.69261756 157.59011841 207.972229 C158.49389123 209.76196112 159.39161025 211.55474637 160.2890625 213.34765625 C160.81193848 214.38929932 161.33481445 215.43094238 161.87353516 216.50415039 C163 219 163 219 163 221 C151.45 221 139.9 221 128 221 C126.22625 217.431875 124.4525 213.86375 122.625 210.1875 C118.5792108 202.07847345 114.46979049 194.01210463 110.21777344 186.00952148 C104.90933725 175.99135272 99.76229169 165.88917469 94.59521484 155.79760742 C93.85272523 154.34935116 93.11005161 152.90118921 92.3671875 151.453125 C92.00652191 150.74932205 91.64585632 150.0455191 91.27426147 149.32038879 C89.43676279 145.74702789 87.57365275 142.19024227 85.66503906 138.65429688 C85.29202667 137.96277527 84.91901428 137.27125366 84.53469849 136.55877686 C83.82464941 135.24744269 83.11085675 133.93812654 82.39279175 132.63116455 C80 128.21787978 80 128.21787978 80 126 C63.83 126 47.66 126 31 126 C31 157.35 31 188.7 31 221 C20.77 221 10.54 221 0 221 C0 148.07 0 75.14 0 0 Z M31 30 C31 51.78 31 73.56 31 96 C39.29125 96.061875 47.5825 96.12375 56.125 96.1875 C58.71230957 96.21481201 61.29961914 96.24212402 63.96533203 96.27026367 C81.72752855 96.38111407 97.45518326 95.50067003 112.4375 84.75 C118.81510452 77.90574149 121.36408778 69.68058441 121.2109375 60.4609375 C120.52566835 52.46613079 117.64571019 45.71951032 112 40 C103.67156135 33.08316112 93.87825079 29.86301035 83.1081543 29.88647461 C81.93119995 29.88659546 80.75424561 29.88671631 79.54162598 29.88684082 C78.31488159 29.89195679 77.08813721 29.89707275 75.82421875 29.90234375 C74.12150818 29.90385437 74.12150818 29.90385437 72.38439941 29.90539551 C68.1520893 29.91061971 63.91979362 29.92458098 59.6875 29.9375 C45.4871875 29.9684375 45.4871875 29.9684375 31 30 Z " fill="#FFFFFF" transform="translate(680,160)"/>
<path d="M0 0 C0.83660156 0.44085938 1.67320312 0.88171875 2.53515625 1.3359375 C20.12487427 11.17747989 30.58855557 26.27192933 36.30078125 45.21484375 C37 48 37 48 37 51 C32.92657953 52.28718413 28.85145429 53.5687739 24.7746582 54.84521484 C23.38810838 55.2802045 22.00203555 55.71671763 20.61645508 56.15478516 C18.62444608 56.7842914 16.63078441 57.4082939 14.63671875 58.03125 C13.43748779 58.40830078 12.23825684 58.78535156 11.00268555 59.17382812 C8 60 8 60 5 60 C4.6596875 58.97261719 4.319375 57.94523437 3.96875 56.88671875 C-0.66656108 43.42379486 -6.66606801 32.04328862 -19.9375 25.56640625 C-32.44830419 20.25833668 -45.2986803 19.423922 -58.13671875 24.15625 C-66.05764498 27.73408368 -72.79724733 32.63487963 -76.18359375 40.8828125 C-77.92421776 47.52883145 -78.55317952 55.24965348 -75 61.375 C-73.60793705 63.26324382 -73.60793705 63.26324382 -72 65 C-71.47664062 65.59167969 -70.95328125 66.18335938 -70.4140625 66.79296875 C-57.94195515 79.12891772 -37.55665612 82.82969036 -21.37304688 87.80810547 C0.2919077 94.52703912 22.21910822 103.96298816 34.4609375 124.05859375 C42.5360532 139.49149254 42.99527405 156.91159587 38.19140625 173.375 C32.66320332 190.19523712 20.82825764 202.33507795 5.1875 210.3125 C-15.54357348 220.47067663 -42.89427717 223.29049667 -65 216 C-66.08667969 215.64808594 -67.17335938 215.29617188 -68.29296875 214.93359375 C-80.62115762 210.55441294 -90.74078422 204.21345359 -100 195 C-100.77214844 194.26265625 -101.54429687 193.5253125 -102.33984375 192.765625 C-112.0973884 182.82460515 -121 166.19864927 -121 152 C-116.62254197 150.85759207 -112.24427929 149.71834123 -107.86523438 148.58203125 C-106.37509885 148.19488183 -104.88518846 147.80686479 -103.39550781 147.41796875 C-101.25644335 146.85970426 -99.11659336 146.30454674 -96.9765625 145.75 C-95.97491562 145.48751465 -95.97491562 145.48751465 -94.95303345 145.21972656 C-90.22774341 144 -90.22774341 144 -88 144 C-87.70867188 144.95519531 -87.41734375 145.91039062 -87.1171875 146.89453125 C-82.47763845 161.69919004 -76.63299926 174.87641531 -62.5546875 182.75 C-48.45651605 189.64818786 -31.78402386 190.02806903 -17 185 C-6.9333884 180.55433904 1.11988016 174.13172533 5.3125 163.75 C7.09760357 154.01307143 6.41333749 146.17172348 0.9375 137.875 C-9.18612144 126.79292919 -26.62835531 122.70387045 -40.4375 118.5 C-59.38193325 112.73084718 -78.92498335 106.40640793 -94 93 C-95.13695312 92.03707031 -95.13695312 92.03707031 -96.296875 91.0546875 C-105.3322705 82.83793522 -111.71938024 70.75456895 -112.3359375 58.43359375 C-112.6723093 39.99380222 -108.87233097 24.92757266 -95.75 11.1875 C-70.89479242 -12.37917021 -29.94560826 -16.38623684 0 0 Z " fill="#FFFFFF" transform="translate(789,400)"/>
<path d="M0 0 C1.00144043 0.00491455 2.00288086 0.0098291 3.03466797 0.01489258 C25.05205901 0.36018703 44.02937498 7.87582716 59.75 23.3125 C60.46285156 24.00085938 61.17570313 24.68921875 61.91015625 25.3984375 C70.36886921 34.16681433 77.88378782 47.90590922 77.75 60.3125 C73.83804274 61.60175432 69.92364054 62.88326022 66.00683594 64.15771484 C64.67541606 64.59212702 63.34467675 65.02863096 62.01464844 65.46728516 C60.10012201 66.0983062 58.18289991 66.7211298 56.265625 67.34375 C55.11352539 67.72080078 53.96142578 68.09785156 52.77441406 68.48632812 C49.75 69.3125 49.75 69.3125 45.75 69.3125 C45.53085937 68.57386719 45.31171875 67.83523438 45.0859375 67.07421875 C41.04780007 54.15546202 36.0645096 43.17844695 23.87280273 36.44042969 C11.85924865 30.19953821 -0.53795399 28.64666505 -13.6796875 32.25390625 C-22.33537477 35.28239729 -29.33019269 39.18712294 -33.6875 47.5 C-36.48890416 53.6681141 -37.37047274 60.03757535 -35.63671875 66.65234375 C-31.85358696 76.40182435 -23.75961102 81.25576321 -14.5859375 85.5 C-3.45260994 90.33552776 8.39055039 93.64524312 19.96484375 97.24609375 C38.48650787 103.08742814 55.33629298 109.82911938 68.75 124.3125 C69.44480469 125.05113281 70.13960937 125.78976562 70.85546875 126.55078125 C82.33133672 139.93521574 82.57043607 156.63973026 81.75 173.3125 C79.87720645 189.39447028 70.03944604 202.18600194 58.125 212.5 C38.07469359 227.86362488 11.40938075 230.68396505 -12.99267578 228.01220703 C-34.67713789 224.5290266 -54.04859487 212.57360428 -67.37109375 195.16015625 C-74.04996064 185.03771558 -77.57098024 174.04361137 -80.25 162.3125 C-73.39915182 159.51674946 -66.44912267 157.79489959 -59.25 156.125 C-57.51556641 155.71604492 -57.51556641 155.71604492 -55.74609375 155.29882812 C-52.91512714 154.6320302 -50.08312551 153.97005312 -47.25 153.3125 C-46.80269531 154.51003906 -46.35539063 155.70757813 -45.89453125 156.94140625 C-40.26795475 171.92253701 -34.33660383 186.24211886 -18.96484375 193.24609375 C-3.88296029 199.17034438 11.65350104 199.04984658 26.75 193.3125 C34.1430576 189.71612346 39.55379959 185.40607688 43.75 178.3125 C44.36875 177.301875 44.9875 176.29125 45.625 175.25 C48.26071027 168.40030984 48.20664126 158.52736081 45.25 151.8125 C36.95946175 138.57622686 20.09454483 133.74207306 5.93389893 129.59805298 C-21.22809202 121.6110771 -51.88070565 112.00461708 -66.4375 85.5625 C-73.48394689 70.40821673 -72.38147995 54.77128442 -67.25 39.3125 C-60.98324701 23.6556927 -47.77829918 12.3919234 -32.6328125 5.71875 C-21.8964513 1.67793134 -11.44502832 -0.06725489 0 0 Z " fill="#FFFFFF" transform="translate(565.25,390.6875)"/>
<path d="M0 0 C44.55 0 89.1 0 135 0 C135 10.23 135 20.46 135 31 C101.01 31 67.02 31 32 31 C32 49.81 32 68.62 32 88 C57.41 88 82.82 88 109 88 C109 98.56 109 109.12 109 120 C83.59 120 58.18 120 32 120 C32 142.77 32 165.54 32 189 C69.29 189 106.58 189 145 189 C145 199.56 145 210.12 145 221 C97.15 221 49.3 221 0 221 C0 148.07 0 75.14 0 0 Z " fill="#FFFFFF" transform="translate(323,160)"/>
<path d="M0 0 C13.86 0 27.72 0 42 0 C44.96078196 9.14504575 47.91998031 18.29059205 50.875 27.4375 C51.10037697 28.13511192 51.32575394 28.83272385 51.55796051 29.55147552 C58.07243508 49.71920878 64.51930963 69.90655403 70.875 90.125 C78.300326 113.74585735 85.88791076 137.31184845 93.54725456 160.85769272 C98.0825729 174.80150821 102.58622759 188.75449361 106.97846985 202.74415398 C107.42735568 204.1734977 107.87712222 205.60256517 108.32780457 207.03134346 C108.94874059 209.00166279 109.56581799 210.97314578 110.18164062 212.94506836 C110.70981384 214.63061073 110.70981384 214.63061073 111.24865723 216.35020447 C112 219 112 219 112 221 C101.11 221 90.22 221 79 221 C76.68536753 214.00934235 74.37195188 207.01845675 72.06922913 200.02389526 C70.99628821 196.76589385 69.92134438 193.50858675 68.84130859 190.25292969 C67.59863439 186.50669243 66.36552644 182.75733955 65.1328125 179.0078125 C64.74940704 177.85636749 64.36600159 176.70492249 63.97097778 175.51858521 C63.61075531 174.41819916 63.25053284 173.31781311 62.87939453 172.18408203 C62.40640427 170.75178757 62.40640427 170.75178757 61.92385864 169.29055786 C60.69770407 164.92329604 59.88960732 160.44803661 59 156 C33.59 156 8.18 156 -18 156 C-18.66 159.3 -19.32 162.6 -20 166 C-20.58236752 168.07425025 -21.20380863 170.13829374 -21.87939453 172.18408203 C-22.239617 173.28446808 -22.59983948 174.38485413 -22.97097778 175.51858521 C-23.35438324 176.67003021 -23.7377887 177.82147522 -24.1328125 179.0078125 C-24.52951141 180.2144455 -24.92621033 181.42107849 -25.33493042 182.66427612 C-26.37962451 185.838439 -27.42926707 189.01087278 -28.48144531 192.18255615 C-29.55829039 195.43280222 -30.62851753 198.68522591 -31.69921875 201.9375 C-33.7924223 208.29403689 -35.89644652 214.64684354 -38 221 C-48.89 221 -59.78 221 -71 221 C-68.74990637 210.87457867 -68.74990637 210.87457867 -67.20678711 206.11206055 C-66.86072922 205.03725937 -66.51467133 203.96245819 -66.15812683 202.85508728 C-65.78496841 201.71052567 -65.41181 200.56596405 -65.02734375 199.38671875 C-64.63255325 198.16493423 -64.23776276 196.94314972 -63.83100891 195.68434143 C-62.76080622 192.37294323 -61.68543838 189.06324387 -60.60902405 185.75386047 C-59.70448486 182.9704843 -58.80315224 180.18607433 -57.90186501 177.40164375 C-51.71064742 158.27494091 -45.46725236 139.16530852 -39.2048645 120.0617981 C-34.02886403 104.27034619 -28.92603573 88.45684829 -23.875 72.625 C-18.48575457 55.73414724 -13.05367004 38.85801509 -7.5625 22 C-7.07097443 20.48832245 -7.07097443 20.48832245 -6.56951904 18.94610596 C-5.65356119 16.13016427 -4.73540473 13.3149506 -3.81640625 10.5 C-3.40825935 9.24453873 -3.40825935 9.24453873 -2.99186707 7.9637146 C-1.11520015 2.23040029 -1.11520015 2.23040029 0 0 Z M20 39 C15.00205817 54.28649324 10.01014554 69.57494687 5.02288818 84.8649292 C4.07004795 87.78530862 3.116466 90.70544454 2.16259766 93.62548828 C0.8426371 97.6669211 -0.47446684 101.70927183 -1.78890991 105.75250244 C-2.26201996 107.20624834 -2.73615749 108.65966025 -3.21133423 110.11273193 C-3.86237791 112.10422419 -4.50980714 114.09685419 -5.15625 116.08984375 C-5.51525391 117.19191162 -5.87425781 118.29397949 -6.24414062 119.42944336 C-7.09403406 121.87323122 -7.09403406 121.87323122 -7 124 C11.15 124 29.3 124 48 124 C45.51326201 114.86296839 45.51326201 114.86296839 42.77929688 105.81958008 C42.57885269 105.18708847 42.37840851 104.55459686 42.17189026 103.90293884 C41.52308245 101.85775033 40.87104664 99.81360943 40.21875 97.76953125 C39.75926112 96.32472558 39.29991325 94.87987505 38.84069824 93.4349823 C37.88402878 90.42664658 36.92576313 87.41882555 35.96630859 84.41137695 C34.74292619 80.57623578 33.52344526 76.73986732 32.30513763 72.90311146 C31.3595025 69.92648818 30.41186855 66.95050414 29.46363831 63.97470665 C29.01335959 62.56084724 28.56367043 61.14679992 28.11460876 59.73255348 C25.89920077 52.75932521 23.66471264 45.81722317 21 39 C20.67 39 20.34 39 20 39 Z " fill="#FFFFFF" transform="translate(545,160)"/>
<path d="M0 0 C44.55 0 89.1 0 135 0 C135 10.23 135 20.46 135 31 C101.01 31 67.02 31 32 31 C32 49.81 32 68.62 32 88 C57.41 88 82.82 88 109 88 C109 98.56 109 109.12 109 120 C83.59 120 58.18 120 32 120 C32 142.77 32 165.54 32 189 C69.29 189 106.58 189 145 189 C145 199.23 145 209.46 145 220 C97.15 220 49.3 220 0 220 C0 147.4 0 74.8 0 0 Z " fill="#FFFFFF" transform="translate(323,395)"/>
<path d="M0 0 C44.22 0 88.44 0 134 0 C134 10.56 134 21.12 134 32 C100.34 32 66.68 32 32 32 C32 50.81 32 69.62 32 89 C57.08 89 82.16 89 108 89 C108 99.23 108 109.46 108 120 C82.92 120 57.84 120 32 120 C32 153.33 32 186.66 32 221 C21.44 221 10.88 221 0 221 C0 148.07 0 75.14 0 0 Z " fill="#FFFFFF" transform="translate(161,160)"/>
<path d="M0 0 C10.56 0 21.12 0 32 0 C32 62.04 32 124.08 32 188 C65.33 188 98.66 188 133 188 C133 198.56 133 209.12 133 220 C89.11 220 45.22 220 0 220 C0 147.4 0 74.8 0 0 Z " fill="#FFFFFF" transform="translate(161,395)"/>
<path d="M0 0 C2.62332252 1.78531672 4.58973995 3.74960752 6.78125 6.03515625 C11.6962754 10.70310676 16.32466711 10.43022363 22.86328125 10.53515625 C29.42709278 10.87068655 34.44523224 12.99170534 39.46875 17.16015625 C44.11625938 22.93433458 45.20858406 26.8631313 44.9921875 34.25390625 C43.44380981 45.9061045 34.51584328 56.37179831 25.36962891 63.37866211 C24.76296387 63.82218018 24.15629883 64.26569824 23.53125 64.72265625 C35.3530563 64.27796623 46.75946085 61.96597233 58.34375 59.72265625 C61.24084447 59.16677761 64.13831224 58.61296687 67.03630066 58.06176758 C68.82555479 57.72092905 70.61426277 57.37720553 72.40229797 57.0300293 C73.22062607 56.8731665 74.03895416 56.71630371 74.88208008 56.5546875 C75.5889949 56.41780518 76.29590973 56.28092285 77.02424622 56.13989258 C83.48185551 55.06516377 89.85325896 54.53240029 96.38598633 54.28955078 C97.65938622 54.23803864 97.65938622 54.23803864 98.95851135 54.18548584 C100.79601711 54.11149607 102.63358336 54.03899648 104.47120094 53.96783829 C107.42844151 53.852937 110.38545424 53.73323085 113.342453 53.61227417 C121.74992644 53.26910625 130.15768289 52.93326608 138.56567383 52.60302734 C160.84766896 51.72517932 183.10625939 50.73594577 205.3515625 49.1640625 C206.24541468 49.10097523 207.13926685 49.03788795 208.06020546 48.97288895 C217.58675902 48.2936312 227.0931919 47.51944618 236.59375 46.53515625 C258.08116582 44.50777502 279.38874169 46.04876132 300.85253906 47.578125 C315.40931562 48.61317845 329.94027294 49.35722566 344.53125 49.72265625 C346.0095726 52.67930144 345.59157783 55.46495362 345.53125 58.72265625 C334.53912576 61.9623723 321.01610269 59.25959909 309.75595093 58.43899536 C276.85170443 56.09523358 244.8627326 56.18204301 212.00708008 59.08374023 C194.55197237 60.60287006 177.09858112 61.51193664 159.59723282 62.25423431 C157.40715114 62.34761783 155.21716123 62.44291622 153.02719116 62.53887939 C127.68504894 63.64885801 127.68504894 63.64885801 115.54463196 63.99420166 C95.45483266 64.56864013 76.32770295 66.68883389 56.625 70.8034668 C47.89688836 72.61897995 39.25849833 74.13136668 30.37890625 74.99609375 C29.53846268 75.07931885 28.6980191 75.16254395 27.83210754 75.24829102 C20.48987241 75.88815391 13.2972335 75.56079271 5.9609375 75 C1.8828233 74.70291299 -2.13051949 74.77841493 -6.21875 74.91015625 C-15.67065011 74.9816069 -24.69038987 72.8111861 -33.09375 68.41015625 C-38.22943467 66.0116222 -42.7759784 66.78989212 -48.28125 67.46972656 C-61.62640367 69.01275996 -75.08617932 69.80877709 -88.5078125 70.25 C-89.74379181 70.29132553 -90.97977112 70.33265106 -92.25320435 70.37522888 C-108.61272239 70.89061236 -124.97776929 71.09389918 -141.34375 71.28515625 C-142.19037704 71.29505459 -143.03700409 71.30495293 -143.9092865 71.31515121 C-154.35913578 71.43624251 -164.80907808 71.54538537 -175.25912476 71.64787579 C-180.38613055 71.69902946 -185.51285824 71.76057631 -190.63964844 71.83007812 C-241.64726015 72.50706947 -292.52756681 70.06927867 -343.46875 67.72265625 C-343.46875 64.42265625 -343.46875 61.12265625 -343.46875 57.72265625 C-334.31793345 57.64122278 -325.23668487 57.86078748 -316.1015625 58.37890625 C-313.46231155 58.51762149 -310.82303373 58.65504232 -308.18359375 58.79003906 C-307.49365389 58.82541653 -306.80371403 58.86079399 -306.0928669 58.8972435 C-262.50795165 61.11384069 -218.97668899 61.08026816 -175.34754944 60.74421692 C-171.46083824 60.71510753 -167.57410738 60.68931817 -163.68737411 60.66335297 C-152.15112517 60.58572621 -140.61517135 60.48758919 -129.07922363 60.37388611 C-126.39446233 60.34814252 -123.70968947 60.32475418 -121.02490234 60.30187988 C-85.62429525 60.2873129 -85.62429525 60.2873129 -50.46875 56.72265625 C-50.90445312 56.3565625 -51.34015625 55.99046875 -51.7890625 55.61328125 C-59.30567493 48.77999722 -64.64572169 38.95907082 -65.46875 28.72265625 C-65.72354435 17.30468455 -62.32446612 6.70062995 -54.3671875 -1.65625 C-39.33736362 -14.49035887 -15.43791101 -8.67273449 0 0 Z M-49.46875 7.72265625 C-54.40624384 15.30373744 -56.35641397 21.66326219 -55.46875 30.72265625 C-53.52947359 39.1873357 -48.48375743 44.71823862 -42.46875 50.72265625 C-41.9634375 51.31949219 -41.458125 51.91632812 -40.9375 52.53125 C-39.47326226 54.24881336 -39.47326226 54.24881336 -36.46875 55.72265625 C-31.95757354 55.52987093 -27.52816239 54.75236245 -23.46875 52.72265625 C-23.31284497 50.95673191 -23.24633877 49.1827346 -23.21875 47.41015625 C-22.57137242 38.034343 -18.50740095 29.68902401 -11.546875 23.32421875 C-7.40022085 20.12848905 -2.96374639 17.39689461 1.53125 14.72265625 C-6.25004765 6.22466013 -17.57381315 1.47670113 -28.95703125 0.51171875 C-36.84444 0.20053115 -43.82798454 1.92943767 -49.46875 7.72265625 Z M17.53125 19.72265625 C17.57765625 20.85703125 17.6240625 21.99140625 17.671875 23.16015625 C18.14899665 39.45819815 18.14899665 39.45819815 11.94140625 46.53515625 C6.40864738 51.96264064 -0.39438947 54.77860072 -7.46875 57.72265625 C-3.88883303 61.4710399 -0.59825582 63.63914622 4.71875 63.84765625 C17.09692847 60.195079 27.23619261 50.22466153 33.4375 39.1484375 C35.35486064 34.89600551 36.06304048 31.11571341 35.03125 26.47265625 C31.34578328 22.17294508 27.05204122 20.58391599 21.59375 19.97265625 C20.24066719 19.87326452 18.88658527 19.7841227 17.53125 19.72265625 Z M-7.34375 31.97265625 C-11.0088821 35.87228733 -13.28104137 40.50896471 -14.46875 45.72265625 C-14.1387854 47.95126236 -14.1387854 47.95126236 -13.46875 49.72265625 C-5.44889079 47.56127575 0.9239054 44.05945001 7.03125 38.41015625 C9.11283237 34.6806545 9.76016535 30.98811235 9.53125 26.72265625 C8.61526711 24.49771723 8.61526711 24.49771723 7.53125 22.72265625 C2.74259383 22.72265625 -3.9476067 28.86444683 -7.34375 31.97265625 Z M-20.46875 61.72265625 C-18.48875 62.71265625 -18.48875 62.71265625 -16.46875 63.72265625 C-16.79875 63.06265625 -17.12875 62.40265625 -17.46875 61.72265625 C-18.45875 61.72265625 -19.44875 61.72265625 -20.46875 61.72265625 Z " fill="#FFFFFF" transform="translate(522.46875,653.27734375)"/>
<path d="M0 0 C33.87804878 0 33.87804878 0 41.625 7.5625 C43.69108849 12.72772123 43.73834755 17.51513249 43 23 C40.67374478 28.01039585 37.61681589 30.27188152 33 33 C34.62682465 38.70323584 37.33197987 43.68013903 40.125 48.875 C40.59292969 49.75414062 41.06085937 50.63328125 41.54296875 51.5390625 C42.6912093 53.69494271 43.84363903 55.84846777 45 58 C46.92108262 55.11837607 47.81794833 52.87715902 48.87939453 49.6105957 C49.239617 48.50968094 49.59983948 47.40876617 49.97097778 46.27449036 C50.35438324 45.08691635 50.7377887 43.89934235 51.1328125 42.67578125 C51.52951141 41.45924362 51.92621033 40.24270599 52.33493042 38.98930359 C53.38784187 35.76021431 54.4352163 32.52935527 55.48144531 29.2980957 C56.5506962 25.99907541 57.62517734 22.70175998 58.69921875 19.40429688 C60.80430674 12.93775714 62.90365009 6.4693775 65 0 C69.29 0 73.58 0 78 0 C80.48038359 7.65710801 82.95830711 15.31499858 85.43187714 22.97430992 C86.58048046 26.53057628 87.73016974 30.08648396 88.88232422 33.64160156 C89.99361062 37.0707507 91.10206602 40.50080287 92.20854187 43.93150711 C92.63175689 45.24199802 93.0560011 46.55215702 93.48127747 47.86198044 C94.07550622 49.69275686 94.66577982 51.52481563 95.25585938 53.35693359 C95.59339233 54.40062103 95.93092529 55.44430847 96.27868652 56.5196228 C97 59 97 59 97 61 C93.7 61 90.4 61 87 61 C86.16112944 58.56427941 85.32873471 56.12666783 84.5 53.6875 C84.14228516 52.65206055 84.14228516 52.65206055 83.77734375 51.59570312 C82.76791737 48.61068511 82 46.17341086 82 43 C75.07 43 68.14 43 61 43 C60.566875 44.670625 60.13375 46.34125 59.6875 48.0625 C58.48197587 52.7123788 56.94038191 56.4724422 55 61 C48.4 61 41.8 61 35 61 C34.21238281 59.20691406 33.42476562 57.41382813 32.61328125 55.56640625 C31.51569302 53.23051336 30.41528364 50.89594461 29.3125 48.5625 C28.80138672 47.37849609 28.29027344 46.19449219 27.76367188 44.97460938 C26.0903529 41.51905717 24.64028626 38.79556412 22 36 C17.33613827 34.59955293 13.95634428 34.7661195 9 35 C9 43.58 9 52.16 9 61 C6.03 61 3.06 61 0 61 C0 40.87 0 20.74 0 0 Z M9 8 C9 13.94 9 19.88 9 26 C11.866875 26.061875 14.73375 26.12375 17.6875 26.1875 C18.58170654 26.21481201 19.47591309 26.24212402 20.3972168 26.27026367 C25.06311271 26.31892671 28.27689405 26.14475939 32 23 C33.66423793 19.25546466 34.40124611 17.1769886 33.0625 13.25 C29.13220095 8.96240104 25.874464 8.08880056 20.20703125 7.8203125 C16.46295999 7.76648322 12.75059327 7.90042673 9 8 Z M71 11 C68.69 18.59 66.38 26.18 64 34 C68.62 34 73.24 34 78 34 C77.38334864 28.60607261 76.12077204 23.71604717 74.4375 18.5625 C74.08655273 17.46518555 74.08655273 17.46518555 73.72851562 16.34570312 C73.15732778 14.56219821 72.57936877 12.78086417 72 11 C71.67 11 71.34 11 71 11 Z " fill="#FFFFFF" transform="translate(485,789)"/>
<path d="M0 0 C12.87 0 25.74 0 39 0 C39 14.19 39 28.38 39 43 C26.13 43 13.26 43 0 43 C0 28.81 0 14.62 0 0 Z " fill="#FFFFFF" transform="translate(860,572)"/>
<path d="M0 0 C6.10902172 3.68338074 10.11275199 8.60419972 12.5 15.3125 C12.5 16.6325 12.5 17.9525 12.5 19.3125 C9.2 19.6425 5.9 19.9725 2.5 20.3125 C2.22027344 19.62542969 1.94054687 18.93835938 1.65234375 18.23046875 C-0.90626139 12.09512478 -0.90626139 12.09512478 -5.9375 8.125 C-11.09849116 6.94793184 -13.89286091 7.54107324 -18.625 9.8125 C-23.98608528 14.47431329 -26.04324002 20.93503824 -26.53125 27.92578125 C-26.42707155 35.88241042 -24.86834712 43.23035604 -19.5 49.3125 C-16.02987252 51.85726015 -13.62899754 52.53469525 -9.4375 52.125 C-8.12064469 51.87620482 -6.80740733 51.60693678 -5.5 51.3125 C-4.1078125 51.065 -4.1078125 51.065 -2.6875 50.8125 C0.93695627 48.32715856 1.37270311 44.39514278 2.5 40.3125 C2.995 39.3225 2.995 39.3225 3.5 38.3125 C-1.45 38.3125 -6.4 38.3125 -11.5 38.3125 C-11.5 35.3425 -11.5 32.3725 -11.5 29.3125 C-3.58 29.3125 4.34 29.3125 12.5 29.3125 C12.5 39.5425 12.5 49.7725 12.5 60.3125 C9.53 60.3125 6.56 60.3125 3.5 60.3125 C3.17 59.3225 2.84 58.3325 2.5 57.3125 C1.654375 57.9725 0.80875 58.6325 -0.0625 59.3125 C-5.99360657 62.68959946 -12.92769132 62.13136836 -19.5 61.3125 C-25.99522273 58.99629766 -30.42260689 54.07905209 -33.69140625 48.15234375 C-38.19620852 37.99691842 -38.33499873 24.58787427 -34.875 14.0625 C-31.69071668 6.90618383 -27.53542142 1.86422271 -20.125 -1.02734375 C-13.49478996 -2.69476264 -6.29170421 -2.91392728 0 0 Z " fill="#FFFFFF" transform="translate(461.5,789.6875)"/>
<path d="M0 0 C29 0 29 0 39 5 C43.11204767 9.89529484 43.64315806 14.07898713 43.3828125 20.4140625 C42.73063957 24.81955718 40.88484292 27.53350026 37.3984375 30.24609375 C35.97122584 31.223497 34.48924121 32.11999383 33 33 C34.8686422 39.58320501 38.27457656 45.31034979 41.54296875 51.27539062 C41.98511719 52.09587891 42.42726563 52.91636719 42.8828125 53.76171875 C43.28902832 54.50381592 43.69524414 55.24591309 44.11376953 56.01049805 C45 58 45 58 45 61 C41.7 61 38.4 61 35 61 C34.67427002 60.2479126 34.34854004 59.4958252 34.01293945 58.72094727 C32.4988404 55.30848017 30.90765796 51.93778832 29.3125 48.5625 C28.80138672 47.37849609 28.29027344 46.19449219 27.76367188 44.97460938 C26.0903529 41.51905717 24.64028626 38.79556412 22 36 C17.33613827 34.59955293 13.95634428 34.7661195 9 35 C9 43.58 9 52.16 9 61 C6.03 61 3.06 61 0 61 C0 40.87 0 20.74 0 0 Z M9 8 C9 13.94 9 19.88 9 26 C11.866875 26.061875 14.73375 26.12375 17.6875 26.1875 C18.58170654 26.21481201 19.47591309 26.24212402 20.3972168 26.27026367 C25.06311271 26.31892671 28.27689405 26.14475939 32 23 C33.66423793 19.25546466 34.40124611 17.1769886 33.0625 13.25 C29.13220095 8.96240104 25.874464 8.08880056 20.20703125 7.8203125 C16.46295999 7.76648322 12.75059327 7.90042673 9 8 Z " fill="#FFFFFF" transform="translate(748,789)"/>
<path d="M0 0 C6.9861836 4.230031 11.48742555 10.53499555 13.96484375 18.24609375 C16.07890563 28.66629224 15.90637391 40.05895991 10.625 49.5 C6.84942097 55.13947247 2.32043946 59.75336362 -4.375 61.5 C-12.58706337 62.61848892 -19.34206784 62.22362374 -26.25 57.40625 C-32.2472125 52.02639761 -35.78070711 45.39604575 -36.59472656 37.32006836 C-37.07014871 27.87654656 -37.31494456 18.86366851 -32.375 10.5 C-32.03597656 9.84902344 -31.69695312 9.19804688 -31.34765625 8.52734375 C-25.0995173 -1.94551548 -10.81237249 -4.67278888 0 0 Z M-22.125 12.375 C-27.20753739 19.43407971 -27.92659546 27.59004863 -27.12890625 36.13671875 C-25.74284964 43.36138548 -22.39788684 48.2205804 -16.375 52.5 C-12.81611857 54.27944072 -9.12892978 53.4830258 -5.375 52.5 C-0.76568207 49.96179051 2.61808832 46.27020229 4.18359375 41.16015625 C5.75540215 31.68757642 6.16647932 21.81219229 1.0390625 13.390625 C-1.93320703 9.41665138 -4.44893984 7.46863858 -9.3125 6.5625 C-15.02689394 6.13284632 -18.22621258 8.29899497 -22.125 12.375 Z " fill="#FFFFFF" transform="translate(404.375,789.5)"/>
<path d="M0 0 C6.37398469 4.75739437 9.28684961 11.03509333 11.15625 18.609375 C11.54134494 21.79142334 11.57826196 24.90733811 11.53125 28.109375 C11.54285156 28.89957031 11.55445313 29.68976562 11.56640625 30.50390625 C11.52547507 38.8402226 9.31427815 46.31105207 3.99609375 52.8125 C-1.50436231 58.1844953 -7.38330668 59.92575953 -14.96875 60.234375 C-21.22088778 59.98347576 -25.23242298 58.84360752 -29.84375 54.609375 C-30.39546875 54.11308594 -30.9471875 53.61679687 -31.515625 53.10546875 C-38.89379917 45.5264037 -40.4496904 36.070665 -40.31420898 25.8894043 C-39.92486205 16.60841162 -37.30563217 9.012986 -30.7421875 2.26953125 C-21.93264529 -5.43428653 -10.09169697 -5.83221448 0 0 Z M-22.84375 7.609375 C-28.2869213 13.0525463 -30.07156507 18.24987017 -30.17358398 25.77612305 C-30.3269208 36.79587648 -30.3269208 36.79587648 -25.3671875 46.375 C-22.45282078 49.22282866 -19.82011477 50.94456985 -15.78125 51.671875 C-11.39949074 51.60232327 -9.43417531 51.0827791 -5.84375 48.609375 C0.78359931 41.68078254 2.22364664 34.99997395 2.15625 25.609375 C1.20643801 17.97363157 -0.75598143 11.60564971 -6.84375 6.609375 C-12.45580704 3.53610567 -17.47401951 4.39476056 -22.84375 7.609375 Z " fill="#FFFFFF" transform="translate(310.84375,791.390625)"/>
<path d="M0 0 C5.14157463 3.08276614 8.94777935 7.02252603 10.4375 12.875 C10.47875 13.720625 10.52 14.56625 10.5625 15.4375 C7.5925 16.0975 4.6225 16.7575 1.5625 17.4375 C0.840625 16.15875 0.11875 14.88 -0.625 13.5625 C-2.23583299 11.02026358 -3.23510693 9.57425207 -5.75 7.875 C-10.68282898 7.07198133 -14.77507246 7.34273064 -19 10.125 C-20.64059817 12.40651071 -20.64059817 12.40651071 -20.8125 15.375 C-18.57889284 20.34985232 -14.32568407 21.47844685 -9.4375 23.4375 C-7.18918378 24.27536551 -4.93914643 25.10862557 -2.6875 25.9375 C3.21932544 28.1638653 7.48636723 30.1345615 10.9375 35.625 C12.16553781 41.15117015 12.26514274 46.3686075 10.4375 51.75 C7.08619121 56.55354261 3.12408576 59.65968051 -2.4375 61.4375 C-10.43614564 62.2078063 -18.89054101 62.75593224 -25.4375 57.4375 C-29.10984505 53.95496155 -32.06121501 50.39212596 -33.4375 45.4375 C-33.4375 44.4475 -33.4375 43.4575 -33.4375 42.4375 C-30.4675 41.7775 -27.4975 41.1175 -24.4375 40.4375 C-24.15777344 41.05238281 -23.87804687 41.66726563 -23.58984375 42.30078125 C-21.51414766 46.48554475 -20.12644483 48.99553539 -16.125 51.5625 C-10.54094989 52.88752884 -6.61646623 52.61777338 -1.4375 49.8125 C0.85321992 47.4936742 0.85321992 47.4936742 1.1875 43.9375 C0.89713474 40.3736346 0.89713474 40.3736346 -1.51953125 38.37109375 C-4.86071607 36.15705561 -7.91018431 35.13351045 -11.75 34 C-18.59044543 31.86049205 -24.67701702 29.73227 -29.375 24.125 C-31.76594492 18.07731579 -32.07778112 13.20760543 -29.51953125 7.26171875 C-23.72359473 -2.5097699 -9.81361054 -4.41423022 0 0 Z " fill="#FFFFFF" transform="translate(830.4375,789.5625)"/>
<path d="M0 0 C2.97 0 5.94 0 9 0 C9 7.92 9 15.84 9 24 C18.24 24 27.48 24 37 24 C37 16.08 37 8.16 37 0 C39.97 0 42.94 0 46 0 C46 20.13 46 40.26 46 61 C43.03 61 40.06 61 37 61 C37 51.76 37 42.52 37 33 C27.76 33 18.52 33 9 33 C9 42.24 9 51.48 9 61 C6.03 61 3.06 61 0 61 C0 40.87 0 20.74 0 0 Z " fill="#FFFFFF" transform="translate(216,789)"/>
<path d="M0 0 C2.97 0 5.94 0 9 0 C9 7.92 9 15.84 9 24 C17.91 24 26.82 24 36 24 C36 16.08 36 8.16 36 0 C38.97 0 41.94 0 45 0 C45 20.13 45 40.26 45 61 C42.03 61 39.06 61 36 61 C36 51.76 36 42.52 36 33 C27.09 33 18.18 33 9 33 C9 42.24 9 51.48 9 61 C6.03 61 3.06 61 0 61 C0 40.87 0 20.74 0 0 Z " fill="#FFFFFF" transform="translate(641,789)"/>
<path d="M0 0 C12.54 0 25.08 0 38 0 C38 2.97 38 5.94 38 9 C28.43 9 18.86 9 9 9 C9 13.95 9 18.9 9 24 C15.93 24 22.86 24 30 24 C30 26.97 30 29.94 30 33 C23.07 33 16.14 33 9 33 C9 39.27 9 45.54 9 52 C19.23 52 29.46 52 40 52 C40 54.97 40 57.94 40 61 C26.8 61 13.6 61 0 61 C0 40.87 0 20.74 0 0 Z " fill="#FFFFFF" transform="translate(699,789)"/>
<path d="M0 0 C32.47884187 0 32.47884187 0 38.05859375 4.75390625 C38.74115234 5.64916016 38.74115234 5.64916016 39.4375 6.5625 C39.91058594 7.16191406 40.38367188 7.76132812 40.87109375 8.37890625 C43.9804144 12.84384767 43.51409998 17.7397886 43 23 C40.54103282 28.53267615 36.31242339 31.39566744 31 34 C28.15624469 34.85132959 25.63457125 35.11881837 22.671875 35.09765625 C21.5905127 35.09390991 21.5905127 35.09390991 20.48730469 35.09008789 C19.13233887 35.07643188 19.13233887 35.07643188 17.75 35.0625 C14.8625 35.041875 11.975 35.02125 9 35 C9 43.58 9 52.16 9 61 C6.03 61 3.06 61 0 61 C0 40.87 0 20.74 0 0 Z M9 8 C9 14.27 9 20.54 9 27 C20.79144906 27.55296522 20.79144906 27.55296522 31.5 23.3125 C33.64168744 20.01073187 33.5506352 17.85444643 33 14 C30.75810322 10.68199277 28.15719338 9.27367334 24.28125 8.3046875 C19.21370671 7.62785809 14.09873232 7.8948715 9 8 Z " fill="#FFFFFF" transform="translate(588,789)"/>
<path d="M0 0 C32.40681818 0 32.40681818 0 38.05859375 4.71875 C38.74115234 5.60046875 38.74115234 5.60046875 39.4375 6.5 C39.91058594 7.0878125 40.38367188 7.675625 40.87109375 8.28125 C43.64398529 12.50295338 43.55866152 17.14207371 43 22 C41.29034803 27.48830952 37.82574027 30.20825476 33 33.0546875 C29.56235154 34.67951353 26.45360412 35.1246686 22.671875 35.09765625 C21.5905127 35.09390991 21.5905127 35.09390991 20.48730469 35.09008789 C19.13233887 35.07643188 19.13233887 35.07643188 17.75 35.0625 C14.8625 35.041875 11.975 35.02125 9 35 C9 43.58 9 52.16 9 61 C6.03 61 3.06 61 0 61 C0 40.87 0 20.74 0 0 Z M9 8 C9 14.27 9 20.54 9 27 C21.06385085 27.75466672 21.06385085 27.75466672 31.5 22.75 C33.29902015 19.45179639 33.6299928 17.7012077 33 14 C30.72194775 10.71960475 28.14997813 9.27186953 24.28125 8.3046875 C19.21370671 7.62785809 14.09873232 7.8948715 9 8 Z " fill="#FFFFFF" transform="translate(164,789)"/>
<path d="M0 0 C15.18 0 30.36 0 46 0 C46 2.97 46 5.94 46 9 C39.73 9 33.46 9 27 9 C27 26.16 27 43.32 27 61 C24.03 61 21.06 61 18 61 C18 43.84 18 26.68 18 9 C12.06 9 6.12 9 0 9 C0 6.03 0 3.06 0 0 Z " fill="#FFFFFF" transform="translate(322,789)"/>
</svg>
