<svg width="281" height="401" viewBox="0 0 281 401" fill="none" xmlns="http://www.w3.org/2000/svg">
<mask id="path-1-outside-1_9_799" maskUnits="userSpaceOnUse" x="0" y="0" width="281" height="401" fill="black">
<rect fill="white" width="281" height="401"/>
<path d="M22.3613 257.534C23.6248 259.929 24.8883 262.324 26.1254 264.746C34.496 281.25 43.4721 297.386 53.7905 312.732C62.7139 325.999 72.4269 338.607 83.9299 349.768C93.4324 359.007 116.201 379.776 144.972 379.776C162.845 379.776 183.956 364.93 194.696 355.875C205.435 346.82 220.071 331.29 230.099 316.602C241.945 299.255 251.421 280.619 259.897 261.429C260.897 259.192 261.95 256.955 262.95 254.717C262.95 254.691 262.976 254.664 263.003 254.691C263.029 254.717 263.055 254.717 263.029 254.743C262.713 257.191 262.476 259.639 262.134 262.087C259.712 273.538 256.238 284.751 251.763 295.543C245.419 310.89 236.206 325.604 226.335 339.344C218.886 349.768 210.2 359.244 200.46 367.536C177.77 386.804 157.502 392.806 145.709 392.806C104.277 392.806 72.0321 354.348 72.0321 354.348C55.5541 333.869 40.7082 312.627 30.6003 288.515C27.4942 281.092 25.2831 274.038 23.2036 265.299C22.5982 262.772 22.4403 260.14 22.0191 257.586C21.9928 257.507 22.0191 257.428 22.0981 257.402C22.256 257.428 22.335 257.455 22.3613 257.534Z"/>
<path d="M218.633 271.672C218.449 272.778 218.343 274.357 217.869 275.831C217.08 278.385 215 279.122 212.816 277.569C210.789 276.121 208.92 274.41 207.025 272.778C204.182 270.356 201.391 267.935 198.575 265.513C194.232 261.828 189.02 260.064 183.755 258.248C179.544 256.774 175.464 254.931 171.384 253.115C169.936 252.457 168.594 251.483 167.356 250.456C163.855 247.561 159.907 245.297 155.643 243.77C152.51 242.638 149.904 240.849 148.167 237.953C147.93 237.585 147.72 237.19 147.535 236.769C146.351 233.741 146.719 232.109 150.141 231.372C152.958 230.714 155.906 230.925 158.591 231.952C162.302 233.373 166.067 234.794 169.462 236.795C178.991 242.402 189.23 246.692 199.944 249.509C202.655 250.219 205.235 251.404 207.814 252.562C214.132 255.379 217.554 260.354 218.238 267.198C218.343 268.514 218.449 269.856 218.633 271.672Z"/>
<path d="M64.9129 272.067C65.2287 270.014 65.4656 267.513 65.9921 265.092C66.8607 261.091 69.2824 258.116 72.6254 255.852C76.2316 253.404 80.259 251.957 84.3126 250.535C90.5511 248.377 97.0001 246.745 102.791 243.376C107.556 240.612 112.32 237.874 117.137 235.216C120.612 233.32 124.191 231.636 128.219 231.399C130.088 231.293 132.009 231.715 133.878 232.03C135.142 232.241 135.589 233.241 135.589 234.426C135.589 236.374 134.668 237.953 133.562 239.427C132.246 241.164 130.64 242.586 128.587 243.402C123.56 245.429 118.901 248.245 114.768 251.772C110.925 255.01 106.239 256.8 101.607 258.59C100.738 258.932 99.8693 259.327 98.9743 259.59C91.0776 261.775 84.8391 266.539 79.1008 272.146C76.837 274.357 74.4943 276.516 72.0989 278.622C70.8881 279.701 69.5193 280.806 67.7557 280.096C65.9921 279.385 65.6236 277.674 65.334 276.016C65.1498 274.857 65.0708 273.699 64.9129 272.067Z"/>
<path d="M76.033 31.7691L75.9804 31.8217C73.9536 33.2695 71.953 34.7962 70.0052 36.4018C57.9231 46.2728 47.5783 57.7495 38.1285 70.0948C35.2856 73.8063 32.7323 77.5704 30.337 81.4398C25.9148 88.1521 22.1506 95.2592 19.0972 102.682C14.6487 112.79 11.6479 123.477 10.2002 134.401C8.12068 147.352 7.51526 160.513 8.38391 173.622V174.043L8.41024 174.095C8.51553 175.543 8.62081 176.912 8.75243 178.202C8.77875 179.413 8.83139 180.597 8.963 181.808C9.3052 185.256 9.80533 188.705 10.3055 192.153C10.3581 192.574 10.7793 192.916 11.0688 193.311C11.0951 193.39 11.1215 193.416 11.1215 193.39C11.3584 192.916 11.6216 192.442 11.8322 191.942C11.8848 191.732 11.8848 191.495 11.8585 191.284C12.227 183.598 12.4113 175.912 12.9904 168.252C13.3852 163.04 14.1486 157.828 14.8856 152.643C25.8884 95.812 59.1076 55.1172 87.4571 37.7706C96.2751 32.5061 105.672 28.3471 115.491 25.3727C124.177 23.03 131.995 21.7138 140.208 21.3453V9C122.519 9.63174 97.8018 15.6859 76.033 31.7691Z"/>
<path d="M204.382 31.7691L204.435 31.8217C206.462 33.2695 208.462 34.7962 210.41 36.4018C222.466 46.2728 232.837 57.7495 242.287 70.0948C245.13 73.8063 247.683 77.5704 250.078 81.4398C254.5 88.1521 258.265 95.2592 261.318 102.682C265.766 112.79 268.767 123.477 270.215 134.427C272.295 147.378 272.9 160.539 272.031 173.648V174.069L272.005 174.122C271.9 175.57 271.794 176.938 271.663 178.228C271.636 179.439 271.584 180.623 271.452 181.834C271.11 185.283 270.61 188.731 270.11 192.179C270.057 192.6 269.636 192.942 269.346 193.337C269.32 193.416 269.294 193.443 269.294 193.416C269.057 192.942 268.794 192.469 268.583 191.968C268.53 191.758 268.53 191.521 268.557 191.31C268.188 183.624 268.004 175.938 267.425 168.278C267.03 163.066 266.267 157.854 265.53 152.669C254.5 95.8646 221.281 55.1699 192.932 37.8233C184.14 32.6114 174.769 28.584 164.898 25.4253C156.922 22.8194 148.578 21.4506 140.181 21.398V9C157.896 9.63174 182.613 15.6859 204.382 31.7691Z"/>
</mask>
<path d="M22.3613 257.534C23.6248 259.929 24.8883 262.324 26.1254 264.746C34.496 281.25 43.4721 297.386 53.7905 312.732C62.7139 325.999 72.4269 338.607 83.9299 349.768C93.4324 359.007 116.201 379.776 144.972 379.776C162.845 379.776 183.956 364.93 194.696 355.875C205.435 346.82 220.071 331.29 230.099 316.602C241.945 299.255 251.421 280.619 259.897 261.429C260.897 259.192 261.95 256.955 262.95 254.717C262.95 254.691 262.976 254.664 263.003 254.691C263.029 254.717 263.055 254.717 263.029 254.743C262.713 257.191 262.476 259.639 262.134 262.087C259.712 273.538 256.238 284.751 251.763 295.543C245.419 310.89 236.206 325.604 226.335 339.344C218.886 349.768 210.2 359.244 200.46 367.536C177.77 386.804 157.502 392.806 145.709 392.806C104.277 392.806 72.0321 354.348 72.0321 354.348C55.5541 333.869 40.7082 312.627 30.6003 288.515C27.4942 281.092 25.2831 274.038 23.2036 265.299C22.5982 262.772 22.4403 260.14 22.0191 257.586C21.9928 257.507 22.0191 257.428 22.0981 257.402C22.256 257.428 22.335 257.455 22.3613 257.534Z" fill="#F5F5F5"/>
<path d="M218.633 271.672C218.449 272.778 218.343 274.357 217.869 275.831C217.08 278.385 215 279.122 212.816 277.569C210.789 276.121 208.92 274.41 207.025 272.778C204.182 270.356 201.391 267.935 198.575 265.513C194.232 261.828 189.02 260.064 183.755 258.248C179.544 256.774 175.464 254.931 171.384 253.115C169.936 252.457 168.594 251.483 167.356 250.456C163.855 247.561 159.907 245.297 155.643 243.77C152.51 242.638 149.904 240.849 148.167 237.953C147.93 237.585 147.72 237.19 147.535 236.769C146.351 233.741 146.719 232.109 150.141 231.372C152.958 230.714 155.906 230.925 158.591 231.952C162.302 233.373 166.067 234.794 169.462 236.795C178.991 242.402 189.23 246.692 199.944 249.509C202.655 250.219 205.235 251.404 207.814 252.562C214.132 255.379 217.554 260.354 218.238 267.198C218.343 268.514 218.449 269.856 218.633 271.672Z" fill="#F5F5F5"/>
<path d="M64.9129 272.067C65.2287 270.014 65.4656 267.513 65.9921 265.092C66.8607 261.091 69.2824 258.116 72.6254 255.852C76.2316 253.404 80.259 251.957 84.3126 250.535C90.5511 248.377 97.0001 246.745 102.791 243.376C107.556 240.612 112.32 237.874 117.137 235.216C120.612 233.32 124.191 231.636 128.219 231.399C130.088 231.293 132.009 231.715 133.878 232.03C135.142 232.241 135.589 233.241 135.589 234.426C135.589 236.374 134.668 237.953 133.562 239.427C132.246 241.164 130.64 242.586 128.587 243.402C123.56 245.429 118.901 248.245 114.768 251.772C110.925 255.01 106.239 256.8 101.607 258.59C100.738 258.932 99.8693 259.327 98.9743 259.59C91.0776 261.775 84.8391 266.539 79.1008 272.146C76.837 274.357 74.4943 276.516 72.0989 278.622C70.8881 279.701 69.5193 280.806 67.7557 280.096C65.9921 279.385 65.6236 277.674 65.334 276.016C65.1498 274.857 65.0708 273.699 64.9129 272.067Z" fill="#F5F5F5"/>
<path d="M76.033 31.7691L75.9804 31.8217C73.9536 33.2695 71.953 34.7962 70.0052 36.4018C57.9231 46.2728 47.5783 57.7495 38.1285 70.0948C35.2856 73.8063 32.7323 77.5704 30.337 81.4398C25.9148 88.1521 22.1506 95.2592 19.0972 102.682C14.6487 112.79 11.6479 123.477 10.2002 134.401C8.12068 147.352 7.51526 160.513 8.38391 173.622V174.043L8.41024 174.095C8.51553 175.543 8.62081 176.912 8.75243 178.202C8.77875 179.413 8.83139 180.597 8.963 181.808C9.3052 185.256 9.80533 188.705 10.3055 192.153C10.3581 192.574 10.7793 192.916 11.0688 193.311C11.0951 193.39 11.1215 193.416 11.1215 193.39C11.3584 192.916 11.6216 192.442 11.8322 191.942C11.8848 191.732 11.8848 191.495 11.8585 191.284C12.227 183.598 12.4113 175.912 12.9904 168.252C13.3852 163.04 14.1486 157.828 14.8856 152.643C25.8884 95.812 59.1076 55.1172 87.4571 37.7706C96.2751 32.5061 105.672 28.3471 115.491 25.3727C124.177 23.03 131.995 21.7138 140.208 21.3453V9C122.519 9.63174 97.8018 15.6859 76.033 31.7691Z" fill="#F5F5F5"/>
<path d="M204.382 31.7691L204.435 31.8217C206.462 33.2695 208.462 34.7962 210.41 36.4018C222.466 46.2728 232.837 57.7495 242.287 70.0948C245.13 73.8063 247.683 77.5704 250.078 81.4398C254.5 88.1521 258.265 95.2592 261.318 102.682C265.766 112.79 268.767 123.477 270.215 134.427C272.295 147.378 272.9 160.539 272.031 173.648V174.069L272.005 174.122C271.9 175.57 271.794 176.938 271.663 178.228C271.636 179.439 271.584 180.623 271.452 181.834C271.11 185.283 270.61 188.731 270.11 192.179C270.057 192.6 269.636 192.942 269.346 193.337C269.32 193.416 269.294 193.443 269.294 193.416C269.057 192.942 268.794 192.469 268.583 191.968C268.53 191.758 268.53 191.521 268.557 191.31C268.188 183.624 268.004 175.938 267.425 168.278C267.03 163.066 266.267 157.854 265.53 152.669C254.5 95.8646 221.281 55.1699 192.932 37.8233C184.14 32.6114 174.769 28.584 164.898 25.4253C156.922 22.8194 148.578 21.4506 140.181 21.398V9C157.896 9.63174 182.613 15.6859 204.382 31.7691Z" fill="#F5F5F5"/>
<path d="M22.3613 257.534C23.6248 259.929 24.8883 262.324 26.1254 264.746C34.496 281.25 43.4721 297.386 53.7905 312.732C62.7139 325.999 72.4269 338.607 83.9299 349.768C93.4324 359.007 116.201 379.776 144.972 379.776C162.845 379.776 183.956 364.93 194.696 355.875C205.435 346.82 220.071 331.29 230.099 316.602C241.945 299.255 251.421 280.619 259.897 261.429C260.897 259.192 261.95 256.955 262.95 254.717C262.95 254.691 262.976 254.664 263.003 254.691C263.029 254.717 263.055 254.717 263.029 254.743C262.713 257.191 262.476 259.639 262.134 262.087C259.712 273.538 256.238 284.751 251.763 295.543C245.419 310.89 236.206 325.604 226.335 339.344C218.886 349.768 210.2 359.244 200.46 367.536C177.77 386.804 157.502 392.806 145.709 392.806C104.277 392.806 72.0321 354.348 72.0321 354.348C55.5541 333.869 40.7082 312.627 30.6003 288.515C27.4942 281.092 25.2831 274.038 23.2036 265.299C22.5982 262.772 22.4403 260.14 22.0191 257.586C21.9928 257.507 22.0191 257.428 22.0981 257.402C22.256 257.428 22.335 257.455 22.3613 257.534Z" stroke="#F5F5F5" strokeWidth="16" mask="url(#path-1-outside-1_9_799)"/>
<path d="M218.633 271.672C218.449 272.778 218.343 274.357 217.869 275.831C217.08 278.385 215 279.122 212.816 277.569C210.789 276.121 208.92 274.41 207.025 272.778C204.182 270.356 201.391 267.935 198.575 265.513C194.232 261.828 189.02 260.064 183.755 258.248C179.544 256.774 175.464 254.931 171.384 253.115C169.936 252.457 168.594 251.483 167.356 250.456C163.855 247.561 159.907 245.297 155.643 243.77C152.51 242.638 149.904 240.849 148.167 237.953C147.93 237.585 147.72 237.19 147.535 236.769C146.351 233.741 146.719 232.109 150.141 231.372C152.958 230.714 155.906 230.925 158.591 231.952C162.302 233.373 166.067 234.794 169.462 236.795C178.991 242.402 189.23 246.692 199.944 249.509C202.655 250.219 205.235 251.404 207.814 252.562C214.132 255.379 217.554 260.354 218.238 267.198C218.343 268.514 218.449 269.856 218.633 271.672Z" stroke="#F5F5F5" strokeWidth="16" mask="url(#path-1-outside-1_9_799)"/>
<path d="M64.9129 272.067C65.2287 270.014 65.4656 267.513 65.9921 265.092C66.8607 261.091 69.2824 258.116 72.6254 255.852C76.2316 253.404 80.259 251.957 84.3126 250.535C90.5511 248.377 97.0001 246.745 102.791 243.376C107.556 240.612 112.32 237.874 117.137 235.216C120.612 233.32 124.191 231.636 128.219 231.399C130.088 231.293 132.009 231.715 133.878 232.03C135.142 232.241 135.589 233.241 135.589 234.426C135.589 236.374 134.668 237.953 133.562 239.427C132.246 241.164 130.64 242.586 128.587 243.402C123.56 245.429 118.901 248.245 114.768 251.772C110.925 255.01 106.239 256.8 101.607 258.59C100.738 258.932 99.8693 259.327 98.9743 259.59C91.0776 261.775 84.8391 266.539 79.1008 272.146C76.837 274.357 74.4943 276.516 72.0989 278.622C70.8881 279.701 69.5193 280.806 67.7557 280.096C65.9921 279.385 65.6236 277.674 65.334 276.016C65.1498 274.857 65.0708 273.699 64.9129 272.067Z" stroke="#F5F5F5" strokeWidth="16" mask="url(#path-1-outside-1_9_799)"/>
<path d="M76.033 31.7691L75.9804 31.8217C73.9536 33.2695 71.953 34.7962 70.0052 36.4018C57.9231 46.2728 47.5783 57.7495 38.1285 70.0948C35.2856 73.8063 32.7323 77.5704 30.337 81.4398C25.9148 88.1521 22.1506 95.2592 19.0972 102.682C14.6487 112.79 11.6479 123.477 10.2002 134.401C8.12068 147.352 7.51526 160.513 8.38391 173.622V174.043L8.41024 174.095C8.51553 175.543 8.62081 176.912 8.75243 178.202C8.77875 179.413 8.83139 180.597 8.963 181.808C9.3052 185.256 9.80533 188.705 10.3055 192.153C10.3581 192.574 10.7793 192.916 11.0688 193.311C11.0951 193.39 11.1215 193.416 11.1215 193.39C11.3584 192.916 11.6216 192.442 11.8322 191.942C11.8848 191.732 11.8848 191.495 11.8585 191.284C12.227 183.598 12.4113 175.912 12.9904 168.252C13.3852 163.04 14.1486 157.828 14.8856 152.643C25.8884 95.812 59.1076 55.1172 87.4571 37.7706C96.2751 32.5061 105.672 28.3471 115.491 25.3727C124.177 23.03 131.995 21.7138 140.208 21.3453V9C122.519 9.63174 97.8018 15.6859 76.033 31.7691Z" stroke="#F5F5F5" strokeWidth="16" mask="url(#path-1-outside-1_9_799)"/>
<path d="M204.382 31.7691L204.435 31.8217C206.462 33.2695 208.462 34.7962 210.41 36.4018C222.466 46.2728 232.837 57.7495 242.287 70.0948C245.13 73.8063 247.683 77.5704 250.078 81.4398C254.5 88.1521 258.265 95.2592 261.318 102.682C265.766 112.79 268.767 123.477 270.215 134.427C272.295 147.378 272.9 160.539 272.031 173.648V174.069L272.005 174.122C271.9 175.57 271.794 176.938 271.663 178.228C271.636 179.439 271.584 180.623 271.452 181.834C271.11 185.283 270.61 188.731 270.11 192.179C270.057 192.6 269.636 192.942 269.346 193.337C269.32 193.416 269.294 193.443 269.294 193.416C269.057 192.942 268.794 192.469 268.583 191.968C268.53 191.758 268.53 191.521 268.557 191.31C268.188 183.624 268.004 175.938 267.425 168.278C267.03 163.066 266.267 157.854 265.53 152.669C254.5 95.8646 221.281 55.1699 192.932 37.8233C184.14 32.6114 174.769 28.584 164.898 25.4253C156.922 22.8194 148.578 21.4506 140.181 21.398V9C157.896 9.63174 182.613 15.6859 204.382 31.7691Z" stroke="#F5F5F5" strokeWidth="16" mask="url(#path-1-outside-1_9_799)"/>
</svg>
